
<svg width="375px" height="287px" viewBox="721 463 375 287" version="1.1" xmlns="http://www.w3.org/2000/svg" xmlns:xlink="http://www.w3.org/1999/xlink">
    <!-- Generator: Sketch 3.8.3 (29802) - http://www.bohemiancoding.com/sketch -->
    <desc>Created with Sketch.</desc>
    <defs></defs>
    <g id="Web" stroke="none" stroke-width="1" fill="none" fill-rule="evenodd" transform="translate(723.000000, 465.000000)">
        <path d="M41.5,50.5 L314.507324,50.5" id="Line" stroke="#afafaf" stroke-width="3" stroke-linecap="square"></path>
        <path d="M42,255 L317.01001,255" id="Line" stroke="#afafaf" stroke-width="3" stroke-linecap="square"></path>
        <path d="M41.5,50.5 L41.5,254.877106" id="Line" stroke="#afafaf" stroke-width="3" stroke-linecap="square"></path>
        <path d="M317.5,50.5 L317.5,254.877106" id="Line" stroke="#afafaf" stroke-width="3" stroke-linecap="square"></path>
        <rect id="Rectangle-31" fill="#FFFFFF" x="219" y="6" width="146" height="122"></rect>
        <path d="M363.5,135.141586 L363.5,0" id="Line" stroke="#afafaf" stroke-width="3" stroke-linecap="square"></path>
        <path d="M211.474765,7.5 L370,7.5" id="Line" stroke="#afafaf" stroke-width="3" stroke-linecap="square"></path>
        <path d="M206.196329,126.5 L371,126.5" id="Line" stroke="#afafaf" stroke-width="3" stroke-linecap="square"></path>
        <path d="M220.5,135.533203 L220.5,0" id="Line" stroke="#afafaf" stroke-width="3" stroke-linecap="square"></path>
        <path d="M232,18.5 L232,18.5" id="Line" stroke="#F1494C" stroke-width="5" stroke-linecap="round"></path>
        <path d="M242,18.5 L242,18.5" id="Line" stroke="#F1494C" stroke-width="5" stroke-linecap="round"></path>
        <path d="M252,18.5 L252,18.5" id="Line" stroke="#F1494C" stroke-width="5" stroke-linecap="round"></path>
        <path d="M155.5,255.480721 L155.5,281.425823" id="Line" stroke="#afafaf" stroke-width="3" stroke-linecap="square"></path>
        <path d="M202.5,255.480721 L202.5,281.425823" id="Line" stroke="#afafaf" stroke-width="3" stroke-linecap="square"></path>
        <path d="M124.5,281.5 L234.504547,281.5" id="Line" stroke="#afafaf" stroke-width="3" stroke-linecap="square"></path>
        <rect id="Rectangle-31" fill="#FFFFFF" x="139" y="84" width="146" height="114"></rect>
        <path d="M140.5,85.5 L283.509995,85.5" id="Line" stroke="#afafaf" stroke-width="3" stroke-linecap="square" opacity="0.8"></path>
        <path d="M141,196 L283.009995,196" id="Line" stroke="#afafaf" stroke-width="3" stroke-linecap="square" opacity="0.8"></path>
        <path d="M140.5,85.5 L140.5,195.053642" id="Line" stroke="#afafaf" stroke-width="3" stroke-linecap="square"></path>
        <path d="M283.5,85.5 L283.5,195.053642" id="Line" stroke="#afafaf" stroke-width="3" stroke-linecap="square"></path>
        <g id="&lt;/&gt;" transform="translate(0.000000, 73.000000)" stroke-width="3" stroke-linecap="square">
            <path d="M0.443877551,8.5 L85.6861195,8.5" id="Line" stroke="#afafaf"></path>
            <path d="M0.887755102,66.5 L86.129997,66.5" id="Line" stroke="#afafaf"></path>
            <path d="M9.5,0 L9.5,76.1326407" id="Line" stroke="#afafaf"></path>
            <path d="M75.5,0 L75.5,76.1326407" id="Line" stroke="#afafaf"></path>
            <path d="M21.1306487,26.5517241 L10.7211918,37.4458584" id="Line" stroke="#F1494C"></path>
            <path d="M21.0625181,48.9516055 L10.6530612,38.0574713" id="Line" stroke="#F1494C"></path>
            <path d="M65.1428571,27.5517241 L75.552314,38.4458584" id="Line" stroke="#F1494C"></path>
            <path d="M65.1428571,49.9788757 L75.552314,39.0847415" id="Line" stroke="#F1494C"></path>
            <path d="M27.5204082,67.2774641 L59.5725714,9.17659794" id="Line" stroke="#F1494C"></path>
        </g>
        <path d="M142.5,97.5 L282.589264,97.5" id="Line" stroke="#afafaf" stroke-width="3" stroke-linecap="square"></path>
        <path d="M221.5,29.5 L361.589264,29.5" id="Line" stroke="#afafaf" stroke-width="3" stroke-linecap="square"></path>
        <path d="M156,114.5 L174,114.5" id="Line" stroke="#ececec" stroke-width="3" stroke-linecap="square"></path>
        <path d="M184,114.5 L195,114.5" id="Line" stroke="#ececec" stroke-width="3" stroke-linecap="square"></path>
        <path d="M206,114.5 L222,114.5" id="Line" stroke="#ececec" stroke-width="3" stroke-linecap="square"></path>
        <path d="M232,114.5 L239,114.5" id="Line" stroke="#ececec" stroke-width="3" stroke-linecap="square"></path>
        <path d="M156,126.5 L162,126.5" id="Line" stroke="#F1494C" stroke-width="3" stroke-linecap="square"></path>
        <path d="M173,126.5 L188,126.5" id="Line" stroke="#F1494C" stroke-width="3" stroke-linecap="square"></path>
        <path d="M174,171.5 L189,171.5" id="Line" stroke="#ececec" stroke-width="3" stroke-linecap="square"></path>
        <path d="M200,171.5 L210,171.5" id="Line" stroke="#ececec" stroke-width="3" stroke-linecap="square"></path>
        <path d="M198,126.5 L213,126.5" id="Line" stroke="#F1494C" stroke-width="3" stroke-linecap="square"></path>
        <path d="M222,126.5 L228.082763,126.5" id="Line" stroke="#F1494C" stroke-width="3" stroke-linecap="square"></path>
        <path d="M239,126.5 L257,126.5" id="Line" stroke="#F1494C" stroke-width="3" stroke-linecap="square"></path>
        <path d="M155,138.5 L173,138.5" id="Line" stroke="#F1494C" stroke-width="3" stroke-linecap="square"></path>
        <path d="M182,138.5 L194.041595,138.5" id="Line" stroke="#F1494C" stroke-width="3" stroke-linecap="square"></path>
        <path d="M204,138.5 L224.024984,138.5" id="Line" stroke="#F1494C" stroke-width="3" stroke-linecap="square"></path>
        <path d="M234,138.5 L242,138.5" id="Line" stroke="#F1494C" stroke-width="3" stroke-linecap="square"></path>
        <path d="M155,149.5 L163,149.5" id="Line" stroke="#ececec" stroke-width="3" stroke-linecap="square"></path>
        <path d="M155,171.5 L163,171.5" id="Line" stroke="#ececec" stroke-width="3" stroke-linecap="square"></path>
        <path d="M172,149.5 L195.021729,149.5" id="Line" stroke="#ececec" stroke-width="3" stroke-linecap="square"></path>
        <path d="M203,149.5 L211.062258,149.5" id="Line" stroke="#ececec" stroke-width="3" stroke-linecap="square"></path>
        <path d="M219,149.5 L260.012192,149.5" id="Line" stroke="#ececec" stroke-width="3" stroke-linecap="square"></path>
        <path d="M155,160.5 L187,160.5" id="Line" stroke="#ececec" stroke-width="3" stroke-linecap="square"></path>
        <path d="M196,160.5 L219,160.5" id="Line" stroke="#ececec" stroke-width="3" stroke-linecap="square"></path>
        <path d="M228,160.5 L241,160.5" id="Line" stroke="#ececec" stroke-width="3" stroke-linecap="square"></path>
    </g>
</svg>
