<svg width="357" height="348" viewBox="36 1236 357 348" xmlns="http://www.w3.org/2000/svg" xmlns:xlink="http://www.w3.org/1999/xlink"><defs><path d="M14.617 41.612c.918-13.228 5.511-23.47 13.778-30.727C36.663 3.628 48.237 0 63.118 0c9.37 0 16.809 1.24 22.321 3.72 5.512 2.48 9.691 5.65 12.539 9.508 2.847 3.858 4.639 8.083 5.374 12.676.733 4.593 1.102 9.002 1.102 13.227 0 5.328-1.057 9.417-3.17 12.264-2.112 2.847-5.42 4.96-9.921 6.339-4.501 1.376-10.242 2.296-17.223 2.754-6.98.46-15.34.965-25.077 1.516a129.06 129.06 0 0 0-17.636 2.342c-5.88 1.195-11.115 3.307-15.708 6.339-4.593 3.03-8.313 7.21-11.16 12.538C1.71 88.551.286 95.625.286 104.443c0 12.676 4.317 22.184 12.952 28.522 8.635 6.337 20.117 9.506 34.447 9.506 7.348 0 14.146-.964 20.392-2.893 6.246-1.93 11.803-4.547 16.672-7.854 4.869-3.307 8.91-7.073 12.125-11.298 3.215-4.226 6.11-8.634 7.579-13.227v21.524c0 5.327 1.515 8.956 4.547 10.885 3.03 1.928 6.566 2.894 10.61 2.894h8.266m-23.423-35.303V38.111" id="a"/><path d="M2.066 2.14a4.502 4.502 0 0 0 6.365 6.365A4.502 4.502 0 0 0 2.066 2.14z" id="b"/></defs><g transform="translate(38 1238)" fill="none" fill-rule="evenodd"><path d="M178.65 335.981c-46.127-1.082-87.323-20.02-119.63-53.329-32.355-33.359-50.174-76.435-50.174-123.11" stroke="#F1494C" stroke-width="3"/><g transform="translate(29)" stroke="#ececec" stroke-width="3"><path d="M10.5 86.5h9.18m9.82 0h9.18m9.82 0h9.18m8.82 0h9.18m9.82 0h10.18m8.82 0h10.18m8.82 0h10.18m8.82 0h10.18m9.82 0h10.18m6.82 0h11.18m8.82 0h11.18m6.82 0h11.18m7.82 0h11.18m7.82 0h11.18m7.82 0h11.18m7.82 0h11.18m7.82 0h11.18M11 229h9.18m9.82 0h9.18m9.82 0h9.18m8.82 0h9.18m9.82 0h10.18m8.82 0h10.18m8.82 0h10.18m8.82 0h10.18m9.82 0h10.18m6.82 0h11.18m8.82 0h11.18m6.82 0h11.18m7.82 0h11.18m7.82 0h11.18m7.82 0h11.18m7.82 0h11.18m7.82 0h11.18" stroke-linecap="square"/><circle cx="155.5" cy="155.5" r="155.5"/></g><use stroke="#afafaf" stroke-width="3" xlink:href="#a" transform="translate(126 86)"/><path d="M186.5 61.5l75.007 75.007" stroke="#F1494C" stroke-width="3" stroke-linecap="square"/><g transform="translate(218 93)"><mask id="c" fill="#fff"><use xlink:href="#b"/></mask><path fill="#FFF" mask="url(#c)" d="M5.249-8.112L18.684 5.323 5.249 18.758-8.186 5.323z"/></g><circle stroke="#F1494C" stroke-width="3" fill="#FFF" cx="186" cy="61" r="6"/><circle stroke="#F1494C" stroke-width="3" fill="#FFF" cx="224" cy="99" r="6"/><circle stroke="#F1494C" stroke-width="3" fill="#FFF" cx="259" cy="133" r="6"/><path d="M.5 159.5h17.263m161.737 168v16.25" stroke="#F1494C" stroke-width="3" stroke-linecap="square"/></g></svg>