<svg width="299" height="287" xmlns="http://www.w3.org/2000/svg"><g fill="none" fill-rule="evenodd"><g transform="translate(2 2)"><path d="M89.656 200.105H29.37m60.286 14.651H29.37" stroke="#F1494C" stroke-width="3" stroke-linecap="square"/><path d="M89.656 229.407H29.37m60.286 15.423H29.37" stroke="#ECECEC" stroke-width="3" stroke-linecap="square"/><path d="M26.665 88.293h140.66M27.051 179.67h140.66M26.665 88.293v91.22m140.667-91.22v91.22m-57.194 16.737v75.938m57.194-75.938v75.938m-57.194-75.938h57.45" stroke="#afafaf" stroke-width="3" stroke-linecap="square"/><path d="M27.051 87.907l138.85 90.082m.272-89.311L29.37 178.128M9.661 68.244h165.851" stroke="#ECECEC" stroke-width="3" stroke-linecap="square"/><path d="M.386 48.58h196.695M8.888 282.614V37.772" stroke="#afafaf" stroke-width="3" stroke-linecap="square"/><path d="M186.655 282.614V38.05" stroke="#ECECEC" stroke-width="3" stroke-linecap="square"/><path d="M.275 272.975h193.989" stroke="#afafaf" stroke-width="3" stroke-linecap="square"/><ellipse fill="#FFF" cx="167.719" cy="56.292" rx="56.421" ry="56.292"/></g><g transform="translate(19.777 2)"><path d="M250.056 40.922s5.034 3.285 6.232 4.451m5.74 5.421s3.403 3.667 4.807 5.539m4.233 6.776s1.994 4.247 2.927 6.835m2.187 7.862s.787 2.178 1.279 7.396m.059 7.893s-.48 4.172-1.207 7.31m-1.88 7.787s-2.196 5.224-3.024 6.797m-4.105 6.663s-3.297 4.565-4.74 5.865m-5.917 5.573s-4.383 3.487-6.06 4.46m-7.294 3.61s-4.113 1.884-6.797 2.618m-7.642 1.427s-2.674.508-7.616.508m-49.704-29.217s3.166 5.63 3.932 6.36m5.232 6.026s4.286 4.066 5.581 5.065m6.766 4.3s3.546 2.013 6.674 3.52m7.767 2.404s2.21 1.234 7.414 1.234m13.176-111.859s-4.005-.949-7.693-.253m15.48 1.62s5.607 1.825 7.052 2.68m-30.472-3.925s-4.993.944-7.066 1.649" stroke="#afafaf" stroke-width="3" stroke-linecap="round"/><path d="M168.587 110.208c21.999-7.682 37.776-28.575 37.776-53.145a56.029 56.029 0 0 0-3.96-20.759c-21.998 7.682-37.776 28.576-37.776 53.146a56.029 56.029 0 0 0 3.96 20.758z" stroke="#afafaf" stroke-width="3"/><path d="M190.52 42.026l16.073 16.037m-15.301-15.266l14.363 14.33m-22.865-8.161l21.655 21.605m-28.611-13.894l23.96 23.905m-29.37-13.88l24.35 24.293m-27.832-11.574l18.94 18.896m-20.868-5.397l12.035 12.008" stroke="#afafaf" stroke-width="3" stroke-linecap="square"/><ellipse stroke="#F1494C" stroke-width="4" cx="149.942" cy="56.292" rx="56.421" ry="56.292"/></g></g></svg>