<svg width="375" height="287" viewBox="721 463 375 287" xmlns="http://www.w3.org/2000/svg"><g fill="none" fill-rule="evenodd"><path d="M764.5 515.5h273.007M765 720h275.01M764.5 515.5v204.377m276-204.377v204.377" stroke="#afafaf" stroke-width="3" stroke-linecap="square"/><path fill="#FFF" d="M942 471h146v122H942z"/><path d="M1086.5 600.142V465m-152.025 7.5H1093m-163.804 119H1094m-150.5 9.033V465m-65 255.48v25.946m47-25.946v25.946m-78 .074h110.005" stroke="#afafaf" stroke-width="3" stroke-linecap="square"/><path fill="#FFF" d="M862 549h146v114H862z"/><path d="M863.5 550.5h143.01M864 661h142.01" stroke="#afafaf" stroke-width="3" stroke-linecap="square" opacity=".8"/><path d="M863.5 550.5v109.554m143-109.554v109.554" stroke="#afafaf" stroke-width="3" stroke-linecap="square"/><g stroke-width="3" stroke-linecap="square"><path d="M723.444 546.5h85.242m-84.798 58h85.242M732.5 538v76.133m66-76.133v76.133" stroke="#afafaf"/><path d="M744.13 564.552l-10.409 10.894m10.342 11.506l-10.41-10.895m54.49-10.505l10.41 10.894m-10.41 11.533l10.41-10.894m-48.033 28.192l32.053-58.1" stroke="#F1494C"/></g><path d="M865.5 562.5h140.09m-61.09-68h140.09" stroke="#afafaf" stroke-width="3" stroke-linecap="square"/><path d="M879 579.5h18m10 0h11m11 0h16m10 0h7" stroke="#ececec" stroke-width="3" stroke-linecap="square"/><path d="M879 591.5h6m11 0h15" stroke="#F1494C" stroke-width="3" stroke-linecap="square"/><path d="M897 636.5h15m11 0h10" stroke="#ececec" stroke-width="3" stroke-linecap="square"/><path d="M921 591.5h15m9 0h6.083m10.917 0h18m-102 12h18m9 0h12.042m9.958 0h20.025m9.975 0h8" stroke="#F1494C" stroke-width="3" stroke-linecap="square"/><path d="M878 614.5h8m-8 22h8m9-22h23.022m7.978 0h8.062m7.938 0h41.012M878 625.5h32m9 0h23m9 0h13" stroke="#ececec" stroke-width="3" stroke-linecap="square"/></g></svg>