<svg width="334" height="325" viewBox="-2 764 334 325" xmlns="http://www.w3.org/2000/svg"><g fill="none" fill-rule="evenodd"><path d="M40.5 1011.5h15.297M39.5 772.5h15.811m-7.811 1v238.02m39 35.98h232.175m-233.175-9v17.464m233-17.464v17.464" stroke="#ececec" stroke-width="3" stroke-linecap="square"/><path fill="#afafaf" d="M160.612 1012.02L79.906 792.95l2.815-1.037 80.706 219.072z"/><path d="M82.5 824.5h247.073m-130.073-58l85 248m-126-248l93 246m-142-246l88 248m-115-220l79 217" stroke="#afafaf" stroke-width="3" stroke-linecap="square"/><g transform="translate(0 771.517)" stroke-width="3"><circle stroke="#afafaf" cx="290" cy="55" r="25"/><path d="M197.5 313.983l11.208-11.208m-10.208.208l11.172 11.172M.5 112.983l6.293 6.293m.707-.293l5.7-5.7M7.5 119.5v8.544" stroke="#ececec" stroke-linecap="square"/><circle stroke="#afafaf" cx="206" cy="116" r="116"/><path d="M111.041 53.25h40.79v9.16h-18.267l43.275 123.17 26.097-75.016-18.598-48.136h-15.23v-9.253h69.145v9.33h-16.219l43.088 124.184 19.123-65.438s1.545-10.242 1.545-14.844c0-4.603-1.58-8.737-3.385-12.043-1.805-3.306-11.677-22.309-13.472-25.637-1.795-3.328-5.702-11.361-2.851-19.958 2.85-8.597 5.027-11.22 8.51-14.07 3.482-2.85 9.141-4.059 9.141-4.059" stroke="#F1494C" stroke-linecap="round" stroke-linejoin="round"/><path stroke="#F1494C" stroke-linecap="round" stroke-linejoin="round" d="M172.263 226.05l36.503-99.829 36.915 98.807M312.389 70.03s-6.485 29.234-8.498 35.262c-2.014 6.027-37.95 110.091-37.95 110.091M100.018 72.365l53.967 146.833"/></g></g></svg>