
<svg width="334px" height="325px" viewBox="-2 764 334 325" version="1.1" xmlns="http://www.w3.org/2000/svg" xmlns:xlink="http://www.w3.org/1999/xlink">
    <!-- Generator: Sketch 3.8.3 (29802) - http://www.bohemiancoding.com/sketch -->
    <desc>Created with Sketch.</desc>
    <defs></defs>
    <g id="Wordpress" stroke="none" stroke-width="1" fill="none" fill-rule="evenodd" transform="translate(0.000000, 766.000000)">
        <g id="Page-1">
            <path d="M40.5,245.5 L55.7970581,245.5" id="Line" stroke="#ececec" stroke-width="3" stroke-linecap="square"></path>
            <path d="M39.5,6.5 L55.311388,6.5" id="Line" stroke="#ececec" stroke-width="3" stroke-linecap="square"></path>
            <path d="M47.5,7.5 L47.5,245.520004" id="Line" stroke="#ececec" stroke-width="3" stroke-linecap="square"></path>
            <path d="M86.5,281.5 L318.6745,281.5" id="Line" stroke="#ececec" stroke-width="3" stroke-linecap="square"></path>
            <path d="M85.5,272.5 L85.5,289.964249" id="Line" stroke="#ececec" stroke-width="3" stroke-linecap="square"></path>
            <path d="M318.5,272.5 L318.5,289.964249" id="Line" stroke="#ececec" stroke-width="3" stroke-linecap="square"></path>
            <polygon id="Fill-7" fill="#afafaf" points="160.6123 246.0209 79.9063 26.9489 82.7213 25.9119 163.4273 244.9839"></polygon>
            <path d="M82.5,58.5 L329.572861,58.5" id="Line" stroke="#afafaf" stroke-width="3" stroke-linecap="square"></path>
            <path d="M199.5,0.5 L284.5,248.5" id="Line" stroke="#afafaf" stroke-width="3" stroke-linecap="square"></path>
            <path d="M158.5,0.5 L251.5,246.5" id="Line" stroke="#afafaf" stroke-width="3" stroke-linecap="square"></path>
            <path d="M109.5,0.5 L197.5,248.5" id="Line" stroke="#afafaf" stroke-width="3" stroke-linecap="square"></path>
            <path d="M82.5,28.5 L161.5,245.5" id="Line" stroke="#afafaf" stroke-width="3" stroke-linecap="square"></path>
            <g id="Group-27" transform="translate(0.000000, 5.517000)" stroke-width="3">
                <circle id="Oval-32" stroke="#afafaf" cx="290" cy="55" r="25"></circle>
                <path d="M197.5,313.983 L208.707643,302.775357" id="Line" stroke="#ececec" stroke-linecap="square"></path>
                <path d="M198.5,302.983 L209.672287,314.155287" id="Line" stroke="#ececec" stroke-linecap="square"></path>
                <path d="M0.5,112.983 L6.79325008,119.27625" id="Line" stroke="#ececec" stroke-linecap="square"></path>
                <path d="M7.5,118.983 L13.2008772,113.282123" id="Line" stroke="#ececec" stroke-linecap="square"></path>
                <path d="M7.5,119.5 L7.5,128.044003" id="Line" stroke="#ececec" stroke-linecap="square"></path>
                <circle id="Oval-33" stroke="#afafaf" cx="206" cy="116" r="116"></circle>
                <path d="M111.041016,53.2505781 L151.830236,53.2505781 L151.830236,62.4091599 L133.563834,62.4091599 L176.838867,185.57968 L202.935547,110.564055 L184.337891,62.4283125 L169.108586,62.4283125 L169.108586,53.1749357 L238.252931,53.1749357 L238.252931,62.5044844 L222.03404,62.5044844 L265.12207,186.689055 L284.245117,121.250578 C284.245117,121.250578 285.790039,111.009368 285.790039,106.406828 C285.790039,101.804288 284.210938,97.6695242 282.405273,94.3638594 C280.599609,91.0581945 270.727539,72.0552655 268.932617,68.7271406 C267.137695,65.3990158 263.231445,57.3658125 266.082031,48.7691328 C268.932617,40.1724531 271.109375,37.5494063 274.591797,34.6988203 C278.074219,31.8482344 283.733398,30.6402266 283.733398,30.6402266" id="Path-1425" stroke="#F1494C" stroke-linecap="round" stroke-linejoin="round"></path>
                <polyline id="Path-1426" stroke="#F1494C" stroke-linecap="round" stroke-linejoin="round" points="172.262695 226.050383 208.765625 126.221281 245.680664 225.027922"></polyline>
                <path d="M312.388672,70.0308516 C312.388672,70.0308516 305.904297,99.26425 303.890625,105.291594 C301.876953,111.318938 265.941406,215.383391 265.941406,215.383391" id="Path-1427" stroke="#F1494C" stroke-linecap="round" stroke-linejoin="round"></path>
                <path d="M100.017578,72.3648359 L153.985352,219.197844" id="Path-1424" stroke="#F1494C" stroke-linecap="round" stroke-linejoin="round"></path>
            </g>
        </g>
    </g>
</svg>
